<svg width="487" height="323" viewBox="0 0 487 323" fill="none" xmlns="http://www.w3.org/2000/svg">
<path d="M21.7871 30.0435C9.71659 30.0435 1.52588e-05 39.5843 1.52588e-05 51.434V274.664C1.52588e-05 286.514 9.71659 296.055 21.7871 296.055C89.0773 296.055 158.811 296.621 221.721 296.621V320.649C221.721 321.73 228.639 322.602 237.229 322.602C245.819 322.602 252.73 321.73 252.73 320.649V296.621C281.052 296.621 317.792 296.055 348.797 296.055C354.067 296.228 411.037 297.159 448.811 258.532C476.168 230.556 474.43 163.641 474.43 163.641L474.424 51.434C474.424 39.5843 464.705 30.0435 452.635 30.0435H21.7871ZM23.3418 39.7095C25.0823 39.7137 27.0766 39.7642 29.3477 39.7642H445.076C457.189 39.7642 461.414 43.8068 461.414 55.6977C460.59 92.1554 462.593 129.202 461.334 165.456C461.334 165.456 379.494 153.892 355.363 180.149C332.626 204.889 355.573 248.409 349.979 280.807H29.3477C17.3706 280.807 13.0079 282.284 13.0079 270.393V50.1723C13.0079 41.254 15.387 39.8616 21.6856 39.7212C22.2105 39.7087 22.7616 39.7081 23.3418 39.7095ZM409.504 186.881C414.245 186.881 418.939 187.815 423.319 189.629C427.699 191.443 431.679 194.102 435.031 197.454C438.384 200.806 441.043 204.786 442.857 209.166C444.671 213.546 445.605 218.24 445.605 222.981C445.606 227.722 444.672 232.417 442.858 236.797C441.043 241.177 438.384 245.156 435.032 248.509C431.68 251.861 427.7 254.52 423.32 256.335C418.939 258.149 414.245 259.083 409.504 259.082C404.763 259.082 400.069 258.149 395.689 256.334C391.309 254.52 387.329 251.861 383.977 248.508C380.625 245.156 377.966 241.176 376.152 236.796C374.338 232.416 373.404 227.722 373.404 222.981C373.405 213.407 377.208 204.225 383.978 197.455C390.748 190.685 399.93 186.882 409.504 186.881Z" fill="black"/>
<path d="M410.674 76.9551L475.624 12ZM398.694 104.425L380.922 106.801L384.115 88.7004L398.694 104.425Z" fill="black"/>
<path d="M410.674 76.9551L475.624 12M398.694 104.425L380.922 106.801L384.115 88.7004L398.694 104.425Z" stroke="black" stroke-width="22.7136" stroke-linecap="round" stroke-linejoin="round"/>
<path d="M118.474 199.269C118.474 199.269 148.043 131.35 178.112 131.585C217.283 131.891 215.355 217.974 254.413 220.962C298.979 224.372 355.976 133.414 355.976 133.414" stroke="black" stroke-width="20.0666" stroke-linecap="round" stroke-linejoin="round"/>
<path d="M406.521 226.778V205.335" stroke="black" stroke-width="6.04057" stroke-linecap="round" stroke-linejoin="round"/>
<path d="M407.56 227.426H428.348" stroke="black" stroke-width="8.0702" stroke-linecap="round" stroke-linejoin="bevel"/>
</svg>
