<svg width="44" height="59" viewBox="0 0 44 59" fill="none" xmlns="http://www.w3.org/2000/svg">
<g filter="url(#filter0_d_402_659)">
<path d="M3.9062 3.73052C6.93852 1.60634 19.7525 0 22.9257 0C32.3945 1.2663e-10 34.0083 1.74692 36.8134 4.5259C39.6185 7.30488 41.9455 17.4585 41.9455 26.6466C41.9455 32.2424 42.9265 42.1388 36.566 47.964C32.3613 51.8147 22.9257 53.2932 22.9257 53.2932C22.9257 53.2932 6.93826 55.4174 3.90593 53.2932C-0.382385 50.2892 3.90587 37.0528 3.90593 26.6466C3.90599 17.6973 -0.382123 6.73453 3.9062 3.73052Z" fill="black"/>
<path d="M13.719 31.7038C13.7414 29.3074 14.4345 24.6582 17.0281 25.2323C20.2702 25.9499 23.1822 30.3928 25.2648 28.7581C26.9309 27.4503 28.7716 22.1994 29.4837 19.7375" stroke="white" stroke-width="4" stroke-linecap="round"/>
</g>
<defs>
<filter id="filter0_d_402_659" x="0" y="0" width="44" height="58.2373" filterUnits="userSpaceOnUse" color-interpolation-filters="sRGB">
<feFlood flood-opacity="0" result="BackgroundImageFix"/>
<feColorMatrix in="SourceAlpha" type="matrix" values="0 0 0 0 0 0 0 0 0 0 0 0 0 0 0 0 0 0 127 0" result="hardAlpha"/>
<feOffset dy="2"/>
<feGaussianBlur stdDeviation="1"/>
<feComposite in2="hardAlpha" operator="out"/>
<feColorMatrix type="matrix" values="0 0 0 0 0 0 0 0 0 0 0 0 0 0 0 0 0 0 0.25 0"/>
<feBlend mode="normal" in2="BackgroundImageFix" result="effect1_dropShadow_402_659"/>
<feBlend mode="normal" in="SourceGraphic" in2="effect1_dropShadow_402_659" result="shape"/>
</filter>
</defs>
</svg>
